# xmcd
#
# Track frame offsets: 
#        150
#        19141
#        38241
#        59953
#        77015
#        91077
#        110577
#        126214
#        136639
#        155164
#        175629
#
# Disc length: 2646 seconds
#
# Revision: 1
# Processed by: cddbd v1.5.2PL0 Copyright (c) Steve Scherf et al.
# Submitted via: ExactAudioCopyFreeDBPlugin 1.0
#
DISCID=8d0a540b
DTITLE=Ruger Hauer - Erectus
DYEAR=2012
DGENRE=Hip-Hop
TTITLE0=Ruger Erectus
TTITLE1=Iso Paha Susi
TTITLE2=Antimateria
TTITLE3=Haiseva Mieliala
TTITLE4=Elvis Sanoo Ei
TTITLE5=Mä Haluun Kuolla Ennen Bonoo
TTITLE6=Torakka
TTITLE7=Musta Oras
TTITLE8=Palaaks Lusikka? (feat. Davo)
TTITLE9=Minulla On Ollut Ikävä Sinua
TTITLE10=Karmina Burana
EXTD=
EXTT0=
EXTT1=
EXTT2=
EXTT3=
EXTT4=
EXTT5=
EXTT6=
EXTT7=
EXTT8=
EXTT9=
EXTT10=
PLAYORDER=
